<?xml version="1.0" encoding="UTF-8"?>
<svg version="1.1" viewBox="0 0 1600 1600" width="1280" height="1280" xmlns="http://www.w3.org/2000/svg">
<path transform="translate(286 65.7)" d="m0 0c0.97-0.01 1.95-0.01 2.95-0.02 1.62 0.01 1.62 0.01 3.28 0.02 1.71-0.01 1.71-0.01 3.47-0.01 3.2-0.01 6.4 0 9.6 0 3.47 0.01 6.95 0 10.4 0 6.1-0.01 12.2-0.01 18.3 0 9.06 0 18.1 0 27.2-0.01 16.2-0.01 32.4-0.01 48.6 0 14.2 0 28.3 0.01 42.5 0h2.84 11.4c35.8-0.01 71.5 0 107 0.01 31.8 0.01 63.6 0.01 95.4 0 35.7-0.01 71.4-0.02 107-0.01h11.4 2.84c14.2 0.01 28.3 0 42.5 0 16.1-0.01 32.2-0.01 48.3 0 9.02 0.01 18 0.01 27 0 6.01 0 12 0 18 0.01 3.44 0.01 6.87 0.01 10.3 0 3.69-0.01 7.37 0 11.1 0.01 1.08-0.01 2.16-0.01 3.27-0.02 0.98 0.01 1.95 0.01 2.96 0.02h2.55c2.03 0.25 2.03 0.25 4.03 2.25 0.2 2.16 0.2 2.16 0.13 4.63-0.02 0.81-0.04 1.63-0.06 2.47-0.03 0.94-0.03 0.94-0.07 1.9 3.05 1.77 5.19 2.23 8.7 2.16 0.88-0.01 1.76-0.02 2.67-0.03 0.91-0.02 1.82-0.04 2.76-0.07 1.81-0.03 3.63-0.06 5.44-0.09 1.21-0.02 1.21-0.02 2.43-0.05 2 0.08 2 0.08 4 1.08v11c4.33 0.74 8.66 1.39 13 2 0.06 0.78 0.12 1.57 0.19 2.37 0.08 1.01 0.16 2.03 0.25 3.07 0.08 1.01 0.16 2.02 0.25 3.06 0.05 2.44 0.05 2.44 1.31 3.5 1.67 0.21 3.33 0.37 5 0.5 4.89 0.39 4.89 0.39 6 1.5 0.33 2.58 0.52 5.16 0.72 7.75 0.04 2.22 0.04 2.22 1.28 3.25 1.64 0.21 3.29 0.37 4.94 0.5 4.84 0.39 4.84 0.39 7.06 1.5v11c0.85 0.04 1.69 0.08 2.56 0.11 1.09 0.07 2.19 0.14 3.32 0.2 1.09 0.06 2.18 0.12 3.3 0.18 0.93 0.17 1.86 0.34 2.82 0.51 2.15 3.22 2.21 3.96 2.07 7.63-0.06 1.45-0.09 2.91-0.07 4.37 1.99 1.99 5.95 1.31 8.66 1.43 2.34 0.57 2.34 0.57 3.62 2.35 1.11 3.4 1.37 6.66 1.72 10.2 0.7 0.06 1.4 0.12 2.12 0.18 0.91 0.09 1.82 0.17 2.76 0.26 1.36 0.12 1.36 0.12 2.74 0.24 2.38 0.32 2.38 0.32 4.38 1.32 0.64 2.5 0.64 2.5 1.13 5.56 0.25 1.52 0.25 1.52 0.51 3.07 0.12 0.78 0.24 1.56 0.36 2.37 0.71 0.06 1.42 0.12 2.16 0.18 0.91 0.09 1.83 0.17 2.78 0.26 1.38 0.12 1.38 0.12 2.78 0.24 2.28 0.32 2.28 0.32 3.28 1.32 0.33 2.84 0.52 5.68 0.72 8.53 0.02 2.41 0.02 2.41 1.28 3.47 1.67 0.21 3.33 0.37 5 0.5 4.89 0.39 4.89 0.39 6 1.5 0.21 1.47 0.37 2.96 0.5 4.44 0.29 3.41 0.29 3.41 1.5 6.56 2.52 0.39 2.52 0.39 5.44 0.5 5.34 0.28 5.34 0.28 7.56 2.5 0.42 2.38 0.42 2.38 0.63 5.13 0.07 0.91 0.15 1.82 0.22 2.75 0.05 0.7 0.1 1.4 0.15 2.12 0.71 0.06 1.42 0.12 2.16 0.18 0.91 0.09 1.83 0.17 2.78 0.26 1.38 0.12 1.38 0.12 2.78 0.24 2.28 0.32 2.28 0.32 3.28 1.32 0.24 1.68 0.42 3.37 0.57 5.06 0.08 0.92 0.16 1.84 0.25 2.79 0.06 0.71 0.12 1.42 0.18 2.15 5.88 2.1 11.6 2.43 17.8 2.75 6.45 0.5 6.45 0.5 8.2 2.25 0.15 1.62 0.23 3.25 0.28 4.88 0.06 1.47 0.06 1.47 0.12 2.98 0.07 2.09 0.14 4.19 0.21 6.28 0.05 1.48 0.05 1.48 0.11 2.99 0.05 1.36 0.05 1.36 0.09 2.75-0.04 2.1-0.04 2.1 1.19 3.12 2.55 0.2 5.1 0.32 7.66 0.43 2.34 0.57 2.34 0.57 3.62 2.35 1.11 3.4 1.37 6.66 1.72 10.2 5.49 1.35 11.1 1.34 16.7 1.52 6.12 0.26 6.12 0.26 8.33 2.48 0.42 2.38 0.42 2.38 0.63 5.13 0.07 0.91 0.15 1.82 0.22 2.75 0.05 0.7 0.1 1.4 0.15 2.12 0.77 0.04 1.54 0.08 2.34 0.11 1 0.07 2 0.14 3.04 0.2 1 0.06 1.99 0.12 3.02 0.18 0.86 0.17 1.72 0.34 2.6 0.51 2.11 3.16 2.34 4.51 2.63 8.19 0.07 0.9 0.15 1.8 0.22 2.73 0.05 0.69 0.1 1.37 0.15 2.08 0.71 0.06 1.42 0.12 2.16 0.18 0.91 0.09 1.83 0.17 2.78 0.26 1.38 0.12 1.38 0.12 2.78 0.24 2.28 0.32 2.28 0.32 3.28 1.32 0.08 1.85 0.09 3.71 0.07 5.56-0.01 1.02-0.02 2.03-0.03 3.07-0.02 1.17-0.02 1.17-0.04 2.37 0.85 0.04 1.69 0.08 2.56 0.11 1.64 0.1 1.64 0.1 3.32 0.2 1.09 0.06 2.18 0.12 3.3 0.18 0.93 0.17 1.86 0.34 2.82 0.51 2.03 3.04 2.32 4.19 2.63 7.69 0.07 0.81 0.15 1.61 0.22 2.45 0.05 0.61 0.1 1.23 0.15 1.86 0.79 0.06 1.57 0.12 2.37 0.18 1.02 0.09 2.03 0.17 3.07 0.26 1.01 0.08 2.02 0.16 3.06 0.24 2.5 0.32 2.5 0.32 3.5 1.32 0.4 2.01 0.75 4.04 1.07 6.06 0.17 1.11 0.35 2.21 0.53 3.35 0.13 0.86 0.27 1.71 0.4 2.59 0.71 0.06 1.42 0.12 2.16 0.18 0.91 0.09 1.83 0.17 2.78 0.26 0.92 0.08 1.83 0.16 2.78 0.24 2.28 0.32 2.28 0.32 3.28 1.32 0.08 1.85 0.09 3.71 0.07 5.56-0.01 1.02-0.02 2.03-0.03 3.07-0.01 0.78-0.03 1.56-0.04 2.37 0.86 0.06 1.71 0.12 2.59 0.18 1.11 0.09 2.21 0.17 3.35 0.26 1.1 0.08 2.2 0.16 3.34 0.24 2.72 0.32 2.72 0.32 3.72 1.32 0.4 1.85 0.74 3.7 1.07 5.56 0.17 1.02 0.35 2.03 0.53 3.07 0.2 1.17 0.2 1.17 0.4 2.37 0.79 0.06 1.57 0.12 2.37 0.18 1.02 0.09 2.03 0.17 3.07 0.26 1.01 0.08 2.02 0.16 3.06 0.24 2.5 0.32 2.5 0.32 3.5 1.32 0.4 2.01 0.75 4.04 1.07 6.06 0.17 1.11 0.35 2.21 0.53 3.35 0.2 1.28 0.2 1.28 0.4 2.59 0.71 0.06 1.42 0.12 2.16 0.18 1.37 0.13 1.37 0.13 2.78 0.26 0.92 0.08 1.83 0.16 2.78 0.24 2.28 0.32 2.28 0.32 3.28 1.32 0.08 1.85 0.09 3.71 0.07 5.56-0.01 1.02-0.02 2.03-0.03 3.07-0.01 0.78-0.03 1.56-0.04 2.37 0.86 0.06 1.71 0.12 2.59 0.18 1.11 0.09 2.21 0.17 3.35 0.26 1.1 0.08 2.2 0.16 3.34 0.24 2.72 0.32 2.72 0.32 3.72 1.32 0.08 1.85 0.09 3.71 0.07 5.56-0.01 1.02-0.02 2.03-0.03 3.07-0.01 0.78-0.03 1.56-0.04 2.37 0.93 0.06 1.86 0.12 2.81 0.18 1.2 0.09 2.4 0.17 3.63 0.26 1.2 0.08 2.39 0.16 3.62 0.24 2.94 0.32 2.94 0.32 3.94 1.32 0.09 1.78 0.11 3.57 0.1 5.35 0 1.62 0 1.62-0.01 3.27-0.01 1.14-0.02 2.27-0.02 3.44-0.01 1.14-0.01 2.28-0.02 3.46-0.01 2.83-0.03 5.65-0.05 8.48h2v2c0.69-0.01 1.38-0.02 2.08-0.03 3.1-0.04 6.2-0.07 9.3-0.09 1.08-0.02 2.16-0.04 3.27-0.06 1.03 0 2.06-0.01 3.13-0.01 0.95-0.02 1.9-0.03 2.88-0.04 2.34 0.23 2.34 0.23 4.34 2.23 0.2 2.38 0.2 2.38 0.13 5.13-0.03 1.36-0.03 1.36-0.06 2.75-0.03 1.05-0.03 1.05-0.07 2.12 0.86 0.06 1.71 0.12 2.59 0.18 1.11 0.09 2.21 0.17 3.35 0.26 1.1 0.08 2.2 0.16 3.34 0.24 2.72 0.32 2.72 0.32 3.72 1.32 0.39 3.42 0.47 6.87 0.63 10.3 0.05 0.97 0.1 1.93 0.15 2.92 0.05 0.93 0.09 1.86 0.14 2.82 0.04 0.85 0.08 1.71 0.12 2.58-0.04 2.3-0.38 4.18-1.04 6.37 0.86 0.06 1.71 0.12 2.59 0.18 1.11 0.09 2.21 0.17 3.35 0.26 1.1 0.08 2.2 0.16 3.34 0.24 2.72 0.32 2.72 0.32 3.72 1.32 0.1 1.52 0.13 3.05 0.13 4.57v3.02 3.36 3.55 9.84c-0.01 3.55-0.01 7.11 0 10.7 0 6.24 0 12.5-0.01 18.7v27.9c0 15.6-0.01 31.2-0.01 46.8-0.01 15.5-0.01 30.9-0.01 46.4v2.91 14.6c-0.01 34.6-0.01 69.2-0.02 104-0.01 33.6-0.02 67.2-0.02 101v3.14c0 10.4-0.01 20.8-0.01 31.2v63.5c0 0.97 0 1.95-0.01 2.95 0 65.1-0.02 130-0.04 195h-12l-0.06 11.9c-0.01 1.13-0.02 2.27-0.02 3.44-0.01 1.62-0.01 1.62-0.01 3.27-0.01 1.5-0.01 1.5-0.02 3.03-0.15 2.28-0.15 2.28 1.11 3.32 1.67 0.21 3.33 0.37 5 0.5 4.89 0.39 4.89 0.39 6 1.5 0.1 2.92 0.13 5.82 0.12 8.74 0 0.93 0 1.85 0.01 2.81 0 3.13-0.01 6.27-0.01 9.4v6.71c0 6.09-0.01 12.2-0.02 18.3v19.1c-0.01 10.7-0.01 21.4-0.02 32-0.01 11-0.02 22-0.02 33v2.05c0 3.4-0.01 6.8-0.01 10.2-0.01 28.2-0.02 56.4-0.05 84.7h-12c0.01 1.93 0.03 3.85 0.04 5.84 0.01 2.51 0.02 5.02 0.03 7.54 0 1.27 0.01 2.54 0.02 3.85 0 1.21 0.01 2.42 0.01 3.67 0.01 1.12 0.01 2.24 0.02 3.4-0.12 2.7-0.12 2.7-1.12 4.7-0.09 1.43-0.13 2.85-0.13 4.28v2.55c0 1.32 0 1.32 0.01 2.67-0.01 0.88-0.01 1.76-0.01 2.67v2.55 2.34c0.01 2.02 0.01 2.02 1.13 3.94 0.05 2.19 0.04 4.38 0 6.56-0.03 2.15-0.04 4.3 0 6.44 1.66 1.65 3.74 1.32 6 1.5 4.89 0.39 4.89 0.39 6 1.5 0.09 2 0.11 4 0.1 6 0 1.83 0 1.83-0.01 3.69-0.01 1.28-0.02 2.56-0.02 3.87-0.01 1.29-0.01 2.57-0.02 3.89-0.01 3.18-0.03 6.37-0.05 9.55h-12l-1 13h-1066c-0.49 6.44-0.49 6.44-1 13-8.4 0.2-8.4 0.2-11 0-2.49-2.49-2.36-3.67-2.62-7.12-0.08-0.91-0.15-1.82-0.23-2.76-0.05-0.7-0.1-1.4-0.15-2.12-0.62-0.01-1.24-0.02-1.88-0.02-6.46-0.09-12.9-0.19-19.4-0.3-2.41-0.04-4.82-0.07-7.23-0.1-3.46-0.05-6.92-0.1-10.4-0.17-1.09-0.01-2.17-0.02-3.29-0.03-1-0.02-2-0.04-3.03-0.06-0.88-0.01-1.77-0.03-2.68-0.04-2.14-0.28-2.14-0.28-4.14-2.28-0.25-1.8-0.25-1.8-0.25-4.03 0-0.85-0.01-1.7-0.01-2.57 0-0.95 0.01-1.89 0.01-2.86 0-1 0-2-0.01-3.03 0-3.4 0-6.79 0.01-10.2 0-2.45 0-4.91-0.01-7.36v-16.1c0.01-8.04 0.01-16.1 0-24.1-0.01-13.7-0.01-27.4 0-41.1v-41.7-2.65-10.7c-0.01-33.3-0.02-66.6-0.01-99.8v-2.99-2.99c0.01-30.1 0.01-60.2 0.01-90.2 0-2.01 0-4.02-0.01-6.03v-24.3-67.8-3.12c0-32.8 0-65.6 0.01-98.4v-3.23-51.9c0.01-68.6 0.01-137 0-206v-51.8c-0.01-1.07-0.01-2.13-0.01-3.23v-98.3-3.12-67.7c0-8.08 0-16.2 0.01-24.2v-6.02c0-30.1 0-60.2-0.01-90.2v-2.99-2.99c-0.01-33.2 0-66.4 0.01-99.5v-10.7-2.65-41.6c-0.01-13.6-0.01-27.2 0-40.8 0.01-8 0.01-16 0-24-0.01-5.92 0-11.8 0.01-17.7 0-2.39 0-4.79-0.01-7.18 0-3.22 0-6.45 0.01-9.67 0-0.94-0.01-1.88-0.01-2.85 0-0.85 0.01-1.7 0.01-2.58v-2.23c0.25-1.8 0.25-1.8 2.25-3.8 2.18-0.24 2.18-0.24 4.91-0.23h3.1c1.65 0.02 1.65 0.02 3.34 0.04h3.43c3.61 0.02 7.23 0.04 10.8 0.07 2.45 0.01 4.89 0.01 7.34 0.02 6.01 0.03 12 0.06 18 0.1-0.02-0.77-0.04-1.54-0.07-2.34-0.02-1-0.03-2-0.05-3.03-0.03-1-0.05-2-0.07-3.03 0.35-4.69 2.66-4.85 6.78-4.85zm8.41 54.2c-1.32 2.65-1.09 4.68-1.06 7.63 0.02 1.77 0.04 3.54 0.06 5.37h-13c-1.22 6.61-1.07 13.1-1 19.8 0.03 2.26 0.05 4.52 0.07 6.77 0.01 1 0.02 1.99 0.03 3.01-0.1 2.41-0.1 2.41-1.1 4.41-0.09 1.36-0.12 2.73-0.12 4.09 0 0.86-0.01 1.73-0.01 2.62 0 0.95 0 1.91 0.01 2.89 0 1.02-0.01 2.03-0.01 3.08 0 3.43 0 6.87 0.01 10.3-0.01 2.47-0.01 4.94-0.01 7.42v16.2 24.1c-0.01 14.3-0.01 28.7 0 43v37.6 2.52 10.1c-0.01 31.7 0 63.3 0 95 0.01 28.2 0.01 56.3 0 84.4v94.8 10.1 2.52 37.6c-0.01 14.2-0.01 28.5 0 42.8v24 17.8c0.01 2.42 0 4.83 0 7.24 0 3.27 0 6.54 0.01 9.81-0.01 1.42-0.01 1.42-0.01 2.88 0.01 4.16 0.07 8.04 1.13 12.1-0.85 0.05-1.71 0.1-2.59 0.15-1.1 0.07-2.21 0.15-3.34 0.23-1.11 0.07-2.21 0.13-3.34 0.21-0.9 0.13-1.8 0.27-2.73 0.41-1.22 2.45-1.12 4.02-1.13 6.75 0 1.01 0 2.02-0.01 3.06 0.01 1.12 0.01 2.24 0.01 3.39 0 1.18-0.01 2.36-0.01 3.58v9.86c0 3.54-0.01 7.08-0.01 10.6-0.01 6.94-0.01 13.9-0.01 20.8 0 5.64-0.01 11.3-0.01 16.9-0.01 16-0.01 31.9-0.01 47.9v2.62 2.61c0 14-0.01 28-0.03 42-0.01 14.4-0.02 28.7-0.02 43 0 8.07 0 16.1-0.01 24.2-0.01 6.86-0.01 13.7 0 20.6 0 3.5 0 7-0.01 10.5-0.01 3.79 0 7.58 0.01 11.4-0.01 1.12-0.01 2.24-0.02 3.39 0 1.01 0.01 2.02 0.01 3.06v2.65c0.06 2.32 0.06 2.32 2.25 4.1 2.44 0.24 2.44 0.24 5.13 0.13 2.41-0.07 2.41-0.07 4.87-0.13v13c-1.07-0.02-2.14-0.04-3.25-0.06-2.89 0.05-5.03 0.19-7.75 1.06-1.19 3.76-1.12 7.33-1.11 11.2v2.19c0 2.38 0.01 4.76 0.02 7.14v4.96c0 4.35 0.01 8.69 0.02 13 0.01 4.44 0.02 8.87 0.02 13.3 0.01 8.7 0.03 17.4 0.05 26.1 2.44 1.22 4.42 1.32 7.13 1.56 1.36 0.13 1.36 0.13 2.76 0.26 1.04 0.09 1.04 0.09 2.11 0.18 0.8 2.82 1.13 5.33 1.14 8.26v2.39c0 0.82-0.01 1.63-0.01 2.48 0 0.82 0.01 1.64 0.01 2.49-0.01 6.13-0.01 6.13-1.14 8.38-0.09 2.16-0.13 4.31-0.13 6.47v3.92 2.04c0.01 2.06 0 4.12 0 6.18v3.92 3.61c-0.06 2.81-0.06 2.81 1.13 4.86 0.1 2.17 0.13 4.33 0.13 6.5 0 1.17 0 2.33 0.01 3.53-0.14 2.97-0.14 2.97-1.14 4.97-0.09 2.04-0.12 4.07-0.12 6.11-0.01 1.31-0.01 2.61-0.01 3.95v4.36 4.58c-0.01 4.14 0 8.29 0 12.4v13 21.8c0.01 8.43 0.01 16.8 0 25.3v21.7 13c-0.01 4.05 0 8.11 0 12.2v4.48c0 2.03 0 4.06 0.01 6.09v3.45c-0.06 2.64-0.06 2.64 1.12 4.66 0.09 2.43 0.11 4.82 0.08 7.25v2.26c-0.01 1.62-0.02 3.25-0.03 4.87-0.02 2.57-0.03 5.14-0.04 7.7-0.02 7.3-0.06 14.6-0.1 21.9-0.03 4.46-0.05 8.92-0.06 13.4 0 1.7-0.01 3.4-0.03 5.1-0.02 2.38-0.02 4.76-0.03 7.14-0.01 0.71-0.02 1.42-0.02 2.14 0 3.66 0.15 5.11 2.23 8.24 2.76 0.26 5.29 0.32 8.04 0.26 0.79-0.01 1.59-0.01 2.4-0.02 2.54-0.02 5.08-0.07 7.63-0.11 2.54-0.04 5.08-0.07 7.63-0.1 1.58-0.01 3.17-0.04 4.75-0.07 1.85-0.02 3.7 0 5.55 0.04 2.07 2.07 1.99 5.95 2.5 8.75 0.28 2.21 0.28 2.21 1.5 3.25 2.18 0.16 4.37 0.25 6.56 0.31 0.68 0.02 1.37 0.05 2.08 0.07 2.3 0.06 4.6 0.12 6.91 0.18 1.2 0.03 1.2 0.03 2.43 0.06 18.5 0.48 37 0.51 55.6 0.47 4.87-0.01 9.74-0.01 14.6-0.02 8.5 0 17-0.01 25.5-0.03 12.6-0.02 25.3-0.03 37.9-0.04 21.3-0.02 42.5-0.05 63.8-0.08 21-0.03 42.1-0.05 63.1-0.08h3.97c5.33-0.01 10.6-0.01 16-0.02 14.9-0.02 29.8-0.03 44.6-0.05h2.05c32.9-0.04 65.8-0.08 98.6-0.12 11.4-0.02 22.8-0.03 34.2-0.04 0.71-0.01 1.42-0.01 2.14-0.01 32.9-0.04 65.8-0.08 98.7-0.11 2.14-0.01 4.28-0.01 6.42-0.01 14.2-0.02 28.4-0.03 42.5-0.05 28.2-0.03 56.4-0.07 84.6-0.1h4.03l268-0.33c0.17-3.79 0.33-7.58 0.49-11.4 0.05-1.06 0.1-2.12 0.14-3.21 0.42-9.76 0.54-19.5 0.56-29.3 0.01-1.85 0.02-3.69 0.03-5.54 0.02-3.91 0.03-7.82 0.04-11.7 0.02-6.18 0.05-12.4 0.08-18.5 0.07-15.3 0.13-30.6 0.19-46 0.05-12 0.09-24 0.15-35.9 0.03-6.15 0.05-12.3 0.07-18.4 0.02-3.8 0.03-7.61 0.05-11.4 0.01-1.77 0.02-3.54 0.02-5.3 0.01-2.41 0.02-4.81 0.03-7.21v-2.15c0.04-4.8 0.04-4.8 1.15-5.91 1.68-0.23 3.37-0.41 5.07-0.56 0.91-0.09 1.83-0.17 2.78-0.26 1.07-0.09 1.07-0.09 2.15-0.18 0.99-2.97 1.2-5.15 1.32-8.27 0.04-1.08 0.08-2.17 0.12-3.28 0.04-1.19 0.08-2.37 0.12-3.59 0.06-1.86 0.06-1.86 0.13-3.75 0.44-14.3 0.43-28.5 0.38-42.8-0.01-3.56-0.01-7.11-0.02-10.7-0.01-6.89-0.03-13.8-0.05-20.7-0.85-0.06-1.71-0.12-2.59-0.18-1.65-0.13-1.65-0.13-3.34-0.26-1.11-0.08-2.21-0.16-3.34-0.24-2.73-0.32-2.73-0.32-3.73-1.32-0.1-1.66-0.13-3.33-0.12-5 0-0.91-0.01-1.81-0.01-2.75 0.13-2.25 0.13-2.25 1.13-3.25 1.85-0.23 3.71-0.41 5.57-0.56 1.01-0.09 2.02-0.17 3.06-0.26 0.78-0.06 1.57-0.12 2.37-0.18 0.2-4.91 0.37-9.82 0.54-14.7 0.06-1.67 0.12-3.34 0.19-5.01 0.09-2.41 0.17-4.81 0.25-7.21 0.03-0.75 0.06-1.49 0.1-2.26 0.16-5.23 0.16-5.23-2.08-9.79-2.38-0.66-2.38-0.66-5.06-0.69-4.87-0.24-4.87-0.24-5.94-1.31-0.1-2.4-0.13-4.77-0.13-7.17v-2.27c-0.01-2.49 0-4.98 0-7.47v-5.16-10.8c0.01-4.64 0.01-9.29 0-13.9v-10.7-5.13c-0.01-2.39 0-4.78 0-7.17v-2.17c0.02-4.89 0.02-4.89 1.13-6 1.68-0.23 3.37-0.41 5.07-0.56 0.91-0.09 1.83-0.17 2.78-0.26 0.71-0.06 1.42-0.12 2.15-0.18 1.12-4.11 1.35-8.17 1.56-12.4 0.04-0.84 0.08-1.67 0.12-2.54 0.46-9.84 0.47-19.7 0.46-29.5v-6.3c0.01-5.72 0.01-11.4 0.01-17.2 0-6.19 0-12.4 0.01-18.6 0.01-12.1 0.01-24.2 0.01-36.3 0-9.83 0-19.6 0.01-29.5v-8.5-2.14c0.01-19.8 0.01-39.6 0.01-59.4v-2.25-11.3-2.27-4.54c0-23.6 0.01-47.3 0.02-70.9 0.01-26.6 0.02-53.1 0.02-79.7v-8.49-2.11c0-11.2 0.01-22.4 0.02-33.7 0.01-11.3 0.01-22.5 0-33.8v-18.3c0.01-5.58 0.01-11.2 0-16.7 0-2.02 0-4.04 0.01-6.07 0.01-2.74 0-5.48-0.01-8.22 0.01-0.79 0.01-1.59 0.02-2.41-0.03-4.11-0.38-6.15-2.27-9.93-131-0.33-262-0.66-397-1-1.3-3.92-1.13-7.65-1.12-11.7-0.01-0.91-0.01-1.81-0.01-2.74v-9.13-6.53c-0.01-5.92 0-11.8 0-17.8v-18.6-31.1c0.01-12 0.01-24 0-36.1v-30.9-18.5c-0.01-5.79 0-11.6 0-17.4v-6.39c0-2.9 0-5.79 0.01-8.69-0.01-0.85-0.01-1.71-0.01-2.59 0.02-5.79 0.02-5.79 1.13-6.9 1.85-0.23 3.71-0.41 5.57-0.56 1.01-0.09 2.02-0.17 3.06-0.26 0.78-0.06 1.57-0.12 2.37-0.18 0.03-18.9 0.04-37.8 0.05-56.7l0.03-26.3c0.01-7.64 0.01-15.3 0.02-22.9 0-4.04 0-8.09 0.01-12.1 0.01-3.81 0.01-7.61 0.01-11.4v-4.2c0.01-1.91 0.01-3.81 0-5.71 0-1.07 0.01-2.14 0.01-3.24 0.14-2.34 0.14-2.34-1.13-3.39-1.66-0.21-3.33-0.37-5-0.5-4.89-0.39-4.89-0.39-6-1.5-0.32-2.58-0.51-5.16-0.72-7.75-0.04-2.22-0.04-2.22-1.28-3.25-3.81-0.39-7.67-0.43-11.5-0.55-1.31-0.05-2.62-0.09-3.97-0.13-21.8-0.63-43.5-0.46-65.3-0.45h-21.3c-13.9-0.01-27.8-0.01-41.6-0.01-12.1 0.01-24.3 0.01-36.4 0.01h-2.45-9.83c-30.7-0.01-61.4 0-92 0-27.2 0.01-54.5 0.01-81.7 0-30.6-0.01-61.3-0.01-92 0h-9.79-2.44c-12.1 0-24.3 0-36.4-0.01-13.8 0-27.6 0-41.4 0.01h-23.1c-5.75-0.01-11.5 0-17.3 0h-6.99-9.49-2.74c-5.55 0.01-10.9 0.27-16.4 1.13zm693 54c-1.33 2.67-1.21 4.82-1.31 7.81-0.04 1.24-0.08 2.49-0.12 3.77-0.04 1.4-0.08 2.79-0.12 4.19-0.02 0.72-0.04 1.44-0.06 2.18-0.57 19.9-0.53 39.7-0.52 59.6v16.2 27.1c0.01 10.4 0.01 20.7 0 31.1v27 16c-0.02 28.4-0.02 28.4 0.58 56.8 0.04 1.25 0.08 2.5 0.12 3.79-0.29 5.07-0.29 5.07 1.43 9.44 1.6 0.12 3.2 0.18 4.8 0.21 1.02 0.02 2.04 0.04 3.09 0.06 1.11 0.01 2.22 0.03 3.37 0.05 1.13 0.02 2.26 0.04 3.42 0.06 3.63 0.07 7.26 0.12 10.9 0.18 2.45 0.05 4.9 0.09 7.35 0.13 6.03 0.11 12.1 0.21 18.1 0.31 0.05 0.7 0.1 1.4 0.15 2.12 0.08 0.91 0.15 1.82 0.23 2.76 0.1 1.35 0.1 1.35 0.21 2.74 0.21 2.56 0.21 2.56 2.41 4.38 2.85 0.3 2.85 0.3 6.24 0.24 0.65 0 1.3 0 1.96 0.01 2.18 0 4.36-0.01 6.53-0.02h4.67c4.24 0 8.48-0.01 12.7-0.03 4.42-0.01 8.85-0.01 13.3-0.01 8.38-0.01 16.8-0.03 25.1-0.05 9.54-0.02 19.1-0.03 28.6-0.04 19.6-0.02 39.2-0.06 58.9-0.1v-12c26.7-0.49 26.7-0.49 54-1v-12c-1.96-0.14-3.92-0.29-5.93-0.44-5.94-0.43-5.94-0.43-7.07-1.56-0.32-3.1-0.51-6.2-0.72-9.31 0.02-2.61 0.02-2.61-1.28-3.69-1.66-0.05-3.33-0.04-5 0-1.66 0.04-3.33 0.05-5 0-2.03-2.03-1.5-5.99-1.72-8.75-0.04-2.22-0.04-2.22-1.28-3.25-1.66-0.21-3.33-0.37-5-0.5-4.89-0.39-4.89-0.39-6-1.5-0.32-2.84-0.51-5.68-0.72-8.53-0.01-2.41-0.01-2.41-1.28-3.47-1.83-0.21-3.66-0.37-5.5-0.5-5.39-0.39-5.39-0.39-6.5-1.5-0.28-2.55-0.45-5.09-0.62-7.65-0.17-2.53-0.17-2.53-2.38-4.35-2.18-0.2-2.18-0.2-4.56-0.06-1.48 0.05-2.96 0.08-4.44 0.06-2.03-2.03-1.5-5.99-1.72-8.75-0.04-2.22-0.04-2.22-1.28-3.25-1.66-0.21-3.33-0.37-5-0.5-4.89-0.39-4.89-0.39-6-1.5-0.32-2.84-0.51-5.68-0.72-8.53-0.01-2.41-0.01-2.41-1.28-3.47-1.83-0.21-3.66-0.37-5.5-0.5-5.39-0.39-5.39-0.39-6.5-1.5-0.26-1.47-0.46-2.95-0.62-4.44-0.15-1.2-0.15-1.2-0.29-2.43-0.09-2.13-0.09-2.13 0.91-4.13-4.29-0.66-8.58-1.32-13-2-0.22-2.57-0.45-5.14-0.68-7.71-0.08-2.25-0.08-2.25-1.32-3.29-3.67-0.14-7.32-0.04-11 0v-13c-5.14-1.71-7.82-2.1-13-2-1.56-1.56-1.38-3.28-1.62-5.44-0.15-1.2-0.15-1.2-0.29-2.43-0.09-2.13-0.09-2.13 0.91-4.13h-13c-0.22-3.09-0.45-6.18-0.68-9.28-0.02-2.63-0.02-2.63-1.32-3.72-1.66-0.21-3.33-0.37-5-0.5-4.89-0.39-4.89-0.39-6-1.5-0.24-2.81-0.38-5.62-0.52-8.43-0.16-0.85-0.32-1.7-0.48-2.57-3.2-2.14-4.02-2.23-7.68-2.12-0.81 0.01-1.62 0.03-2.45 0.05-0.62 0.02-1.23 0.05-1.87 0.07-2.36-9.27-2.36-9.27-1-12h-13c-0.22-3.09-0.45-6.18-0.68-9.28-0.02-2.63-0.02-2.63-1.32-3.72-1.66-0.21-3.33-0.37-5-0.5-4.89-0.39-4.89-0.39-6-1.5-0.23-1.85-0.41-3.7-0.56-5.56-0.08-1.01-0.17-2.03-0.25-3.07-0.06-0.78-0.12-1.56-0.19-2.37-5.22-1.77-7.3-1.95-13-1v-13c-4.29-0.66-8.58-1.32-13-2-0.22-2.57-0.45-5.14-0.68-7.71-0.08-2.25-0.08-2.25-1.32-3.29-1.83-0.21-3.66-0.37-5.5-0.5-5.39-0.39-5.39-0.39-6.5-1.5-0.21-1.64-0.36-3.29-0.5-4.94-0.25-3.66-0.25-3.66-1.5-7.06h-11c-0.22-2.83-0.45-5.66-0.68-8.5-0.05-2.44-0.05-2.44-1.32-3.5-1.85-0.07-3.71-0.08-5.56-0.06-1.01 0.01-2.02 0.02-3.07 0.03-0.78 0.01-1.56 0.02-2.37 0.03zm332 861v5h1v-5h-1zm0 228 1 4zm-13 192v12h1v-12h-1zm-1026 38c-0.02 1.8-0.04 3.59-0.06 5.44-0.01 1.01-0.02 2.02-0.03 3.06-0.19 2.44-0.19 2.44 1.09 3.5 2.02 0.07 4.04 0.08 6.07 0.06 1.95-0.02 3.91-0.04 5.93-0.06v-12h-13z" fill="#F9FCFE"/>
<path transform="translate(1086 1079)" d="m0 0c2.25-0 4.5-0.02 6.75-0.04 1.43 0 2.86 0 4.29-0.01 1.3 0 2.6 0 3.94-0.01 3.08 0.25 3.08 0.25 5.08 2.25 0.19 2.49 0.26 4.87 0.24 7.37 0.01 0.76 0.01 1.52 0.01 2.3 0 2.51-0.01 5.03-0.02 7.55v5.23c0 3.65-0.01 7.31-0.02 11-0.02 4.69-0.02 9.39-0.02 14.1 0 3.6-0.01 7.2-0.02 10.8v5.2c0 2.41-0.01 4.83-0.02 7.24v2.19c-0.03 4.94-0.03 4.94-1.15 6.06-1.81 0.12-3.62 0.17-5.44 0.18-0.99 0.02-1.97 0.03-2.99 0.05-2.57-0.23-2.57-0.23-4.57-2.23-0.41-2.83-0.41-2.83-0.62-6.13-0.08-1.1-0.15-2.19-0.23-3.32-0.05-0.84-0.1-1.69-0.15-2.55-15.2 0.1-30.5 0.22-45.7 0.33-7.08 0.06-14.2 0.11-21.2 0.16-6.82 0.05-13.6 0.1-20.5 0.16-2.61 0.02-5.22 0.04-7.83 0.05l-10.9 0.09c-1.09 0.01-2.18 0.01-3.3 0.02-0.99 0.01-1.97 0.02-2.99 0.03-0.86 0-1.72 0.01-2.61 0.02-1.95-0.08-1.95-0.08-2.95 1.14-0.23 2.01-0.41 4.03-0.56 6.06-0.09 1.1-0.17 2.21-0.26 3.35-0.06 0.85-0.12 1.7-0.18 2.59-3.96 0.05-7.92 0.09-11.9 0.12-1.13 0.02-2.26 0.03-3.42 0.05-1.62 0.01-1.62 0.01-3.26 0.02-1 0.01-1.99 0.02-3.02 0.03-2.43-0.22-2.43-0.22-4.43-2.22-0.38-2.35-0.38-2.35-0.56-5.07 0.02-3.27 0.02-3.27-1.44-5.93-1.69-0.1-3.39-0.14-5.09-0.14h-3.12c-1.09 0-2.17 0.01-3.29 0.01-1.63-0.01-1.63-0.01-3.28-0.01h-3.13c-1.42 0-1.42 0-2.88 0.01-2.18-0.12-2.18-0.12-3.21 1.13-0.23 2.01-0.41 4.03-0.56 6.06-0.09 1.1-0.17 2.21-0.26 3.35-0.06 0.85-0.12 1.7-0.18 2.59-1.79 0.05-3.58 0.09-5.37 0.12-1 0.02-2 0.05-3.03 0.07-2.6-0.19-2.6-0.19-4.6-2.19-0.41-2.83-0.41-2.83-0.62-6.13-0.12-1.64-0.12-1.64-0.23-3.32-0.05-0.84-0.1-1.69-0.15-2.55-32 0.1-63.9 0.21-95.9 0.33-3.76 0.01-7.53 0.02-11.3 0.04-0.75 0-1.5 0-2.28 0.01-12.2 0.04-24.3 0.08-36.5 0.12-12.5 0.04-24.9 0.08-37.4 0.13-7.7 0.03-15.4 0.06-23.1 0.08-5.9 0.02-11.8 0.04-17.7 0.07-2.43 0.01-4.85 0.01-7.28 0.02-3.3 0.01-6.59 0.02-9.89 0.04h-2.95c-0.88 0.01-1.75 0.01-2.66 0.02h-2.31c-1.76-0.05-1.76-0.05-2.73 1.14-0.23 2.01-0.41 4.03-0.56 6.06-0.09 1.1-0.17 2.21-0.26 3.35-0.06 0.85-0.12 1.7-0.18 2.59-20.4 0.04-40.9 0.08-61.3 0.1-9.48 0.01-19 0.02-28.5 0.05-8.27 0.02-16.5 0.03-24.8 0.03-4.38 0.01-8.76 0.01-13.1 0.03-4.12 0.01-8.24 0.01-12.4 0.01-1.51 0-3.03 0.01-4.54 0.01-2.06 0.01-4.13 0.01-6.19 0.01h-3.5c-2.7-0.24-2.7-0.24-4.7-2.24-0.41-2.39-0.41-2.39-0.62-5.13-0.08-0.91-0.15-1.82-0.23-2.76-0.05-0.7-0.1-1.39-0.15-2.11-1.16-0.08-1.16-0.08-2.34-0.15-1-0.08-2-0.15-3.03-0.23-1.5-0.1-1.5-0.1-3.03-0.21-2.6-0.41-2.6-0.41-4.6-2.41-0.25-2.13-0.25-2.13-0.26-4.79 0-0.99-0.01-1.99-0.02-3.01 0.01-1.08 0.01-2.16 0.02-3.27-0.01-1.1-0.01-2.2-0.01-3.34 0-2.33 0-4.66 0.01-7 0.01-3.58 0-7.16-0.01-10.7 0-2.27 0-4.53 0.01-6.79-0.01-1.08-0.01-2.16-0.02-3.27 0.01-0.99 0.02-1.98 0.02-3.01 0-0.88 0.01-1.76 0.01-2.66 0.25-2.12 0.25-2.12 2.25-4.12 2.74-0.32 5.39-0.52 8.14-0.62 0.84-0.04 1.69-0.08 2.56-0.12 10.7-0.43 21.4-0.4 32.1-0.38 2.35-0.01 4.71-0.01 7.06-0.01 6.41 0 12.8 0 19.2 0.01h18.6c12.7 0 25.4 0 38.1 0.01 12.6 0.01 25.1 0.01 37.7 0.01h2.37 11.9c28.1 0 56.3 0.01 84.4 0.02 27.3 0.01 54.6 0.02 82 0.02h2.56 25.4c17.2 0.01 34.5 0.01 51.7 0.01h2.41c52.9 0.01 106 0.03 159 0.05-0.01-0.7-0.02-1.4-0.03-2.12-0.02-1.37-0.02-1.37-0.03-2.76-0.01-0.9-0.02-1.81-0.04-2.74 0.1-2.38 0.1-2.38 1.1-4.38 6.08-1.78 12.7-1.19 18.9-1.19z" fill="#F9FCFE"/>
<path transform="translate(483 706)" d="m0 0h2.35c1.35-0.01 1.35-0.01 2.72-0.01 1 0 1.99 0.01 3.01 0.01 1.06-0 2.11-0 3.2-0.01 3.57 0 7.14 0 10.7 0.01h7.71c5.61-0.01 11.2-0.01 16.8-0 8.34 0.01 16.7 0.01 25 0 14-0 28.1-0 42.1 0.01 13.9 0.01 27.8 0.01 41.7 0.01h2.62 10.5c32.9 0 65.8 0.01 98.7 0.03 29.2 0.01 58.5 0.02 87.8 0.01h5.63 2.81 14 2.8c24.4 0 48.8 0.01 73.2 0.01 1.3 0 1.3 0 2.63 0.01h10.5 36.5c15.7 0 31.4 0.01 47 0.02h24.9c6.17 0 12.4 0.01 18.5 0.01 2.51 0.01 5.03 0.01 7.54 0 3.39 0 6.78 0.01 10.2 0.01 1.49 0 1.49 0 3.01-0.01 1.35 0.01 1.35 0.01 2.72 0.01h2.36c1.88 0.13 1.88 0.13 3.88 1.13v53c-58.3 0.03-117 0.07-175 0.08-1.29 0-1.29 0-2.61 0.01-18.8 0-37.5 0.01-56.2 0.01-9.19 0-18.4 0.01-27.6 0.01h-2.77c-29.7 0.01-59.3 0.02-89 0.04-30.5 0.02-61 0.03-91.4 0.04h-12.9-2.57c-13.6 0-27.3 0.01-41 0.02-13.7 0.02-27.4 0.02-41.1 0.02-8.15 0-16.3 0-24.5 0.01-6.07 0.01-12.1 0.01-18.2 0-2.46 0-4.93 0-7.4 0.01-3.34 0.01-6.67 0-10 0-0.98 0-1.96 0.01-2.96 0.01-0.88 0-1.77-0.01-2.67-0.01h-2.32c-1.86-0.25-1.86-0.25-3.86-2.25-0.19-2.82-0.19-2.82-0.12-6.13 0.02-1.09 0.03-2.19 0.05-3.32 0.03-0.84 0.05-1.68 0.07-2.55-0.77 0.1-1.54 0.19-2.33 0.29-1.01 0.11-2.01 0.22-3.04 0.33-1 0.12-2 0.24-3.03 0.36-1.28 0.01-1.28 0.01-2.6 0.02-2.57-2.57-2.25-4.31-2.28-7.82 0.01-0.79 0.01-1.58 0.02-2.4 0-0.81-0.01-1.63-0.01-2.46 0-1.73 0-3.45 0.01-5.17 0.01-2.64 0-5.28-0.01-7.92 0-1.67 0-3.34 0.01-5.01-0.01-0.79-0.01-1.59-0.02-2.4 0.07-7.53 0.07-7.53 4.17-8.07z" fill="#FAFDFF"/>
<path transform="translate(496 893)" d="m0 0c0.99 0 1.98 0.01 3 0.01 1.07 0 2.14 0.01 3.24 0.01 1.13 0.01 2.25 0.02 3.41 0.04h3.41c8.39 0.04 8.39 0.04 9.53 1.18 0.32 2.32 0.51 4.64 0.71 6.97 0.08 2.02 0.08 2.02 1.29 3.03 2.81 0.16 5.59 0.26 8.41 0.32 0.84 0.02 1.68 0.04 2.55 0.06 2.7 0.07 5.4 0.13 8.1 0.19 1.82 0.04 3.65 0.08 5.48 0.13 4.48 0.1 8.97 0.2 13.5 0.3-0.03-0.7-0.05-1.39-0.07-2.11-0.02-0.91-0.04-1.82-0.06-2.76-0.02-0.91-0.05-1.81-0.07-2.74 0.2-2.39 0.2-2.39 2.2-4.39 2.27-0.25 2.27-0.25 5.16-0.26 1.09 0 2.19-0.01 3.31-0.02 1.21 0 2.41 0.01 3.65 0.01 1.9-0.01 1.9-0.01 3.84-0.02 3.47-0.01 6.95-0.01 10.4-0.01 2.9 0 5.8 0 8.7-0.01 6.83-0.01 13.7-0.01 20.5 0 7.06 0 14.1-0.01 21.2-0.03 6.06-0.02 12.1-0.02 18.2-0.02 3.62 0 7.24 0 10.9-0.02 4.03-0.01 8.06 0 12.1 0.01 1.8-0.01 1.8-0.01 3.65-0.02 1.09 0 2.19 0.01 3.31 0.02h2.89c0.75 0.12 1.5 0.25 2.28 0.37 2 3 2 3 1 11 13.4 0.5 13.4 0.5 27 1v-10c2-2 2-2 4.34-2.23 0.9 0.02 1.8 0.03 2.72 0.05 1.35 0.01 1.35 0.01 2.72 0.01 2.22 0.17 2.22 0.17 3.22 1.17 0.32 2.32 0.51 4.64 0.71 6.97 0.08 2.02 0.08 2.02 1.29 3.03 2.56 0.11 5.1 0.16 7.67 0.16 0.81 0.01 1.63 0.01 2.47 0.02 2.74 0.01 5.49 0.02 8.24 0.03l5.88 0.03c5.34 0.03 10.7 0.05 16 0.07 5.58 0.02 11.2 0.05 16.7 0.07 10.6 0.05 21.1 0.1 31.7 0.14 12 0.05 24 0.1 36.1 0.16 24.7 0.11 49.5 0.22 74.2 0.32-0.03-0.7-0.05-1.39-0.07-2.11-0.02-0.91-0.04-1.82-0.06-2.76-0.02-0.91-0.05-1.81-0.07-2.74 0.2-2.39 0.2-2.39 2.2-4.39 2.08-0.25 2.08-0.25 4.69-0.26 1.46-0.01 1.46-0.01 2.95-0.01 1.58 0 1.58 0 3.2 0.01 1.08 0 2.16-0.01 3.27-0.01 2.29 0 4.58 0 6.86 0.01 3.51 0.01 7.02 0 10.5-0.01 2.22 0 4.43 0 6.65 0.01 1.06-0.01 2.11-0.01 3.2-0.01 0.97 0 1.95 0.01 2.95 0.01 1.29 0.01 1.29 0.01 2.61 0.01 2.09 0.25 2.09 0.25 4.09 2.25 0.24 2.18 0.24 2.18 0.22 4.91v3.1c-0.01 1.1-0.02 2.21-0.03 3.34 0 1.7 0 1.7-0.01 3.43-0.01 3.61-0.03 7.23-0.06 10.8-0.01 2.45-0.02 4.89-0.03 7.34-0.02 6.01-0.05 12-0.09 18l-119 0.39c-4.71 0.01-9.42 0.03-14.1 0.04-0.94 0-1.87 0.01-2.84 0.01-15.1 0.05-30.2 0.1-45.2 0.14-15.5 0.06-31.1 0.1-46.6 0.15-8.7 0.03-17.4 0.06-26.1 0.09-49.3 0.16-98.6 0.32-148 0.03-0.73 0-1.46 0-2.21-0.01-6.93-0.04-13.9-0.08-20.8-0.12-8.7-0.06-17.4-0.11-26.1-0.15-6.23-0.03-12.4-0.07-18.7-0.11-3.69-0.02-7.37-0.05-11-0.06-4.05-0.02-8.11-0.05-12.2-0.08h-3.65c-1.1-0.02-2.19-0.03-3.31-0.04-0.96 0-1.91-0.01-2.89-0.02-2.26-0.26-2.26-0.26-4.26-2.26-0.2-2.7-0.28-5.3-0.27-8 0-0.79 0-1.58-0.01-2.4 0-1.67 0.01-3.34 0.01-5.02 0.02-2.57 0.01-5.13-0.01-7.7 0-1.63 0.01-3.25 0.01-4.88 0-0.77-0.01-1.54-0.01-2.33 0.05-5.44 0.05-5.44 2.28-7.67 2.6-0.19 2.6-0.19 5.62-0.12 1.51 0.02 1.51 0.02 3.04 0.05 0.77 0.03 1.54 0.05 2.34 0.07-0.03-0.77-0.05-1.54-0.07-2.33-0.02-1.01-0.04-2.01-0.06-3.04-0.02-1-0.05-2-0.07-3.03 0.26-3.5 1.09-4.49 4.61-4.84z" fill="#FAFDFF"/>
<path transform="translate(279,167)" d="m0 0h1v537h-1v-537z" fill="#060A08"/>
<path transform="translate(1318,677)" d="m0 0h1v339h-1v-339z" fill="#FAFDFF"/>
<path transform="translate(279,1230)" d="m0 0h1v155h-1v-155z" fill="#060A08"/>
<path transform="translate(1318,510)" d="m0 0h1v61h-1v-61z" fill="#FAFDFF"/>
<path transform="translate(1318,1176)" d="m0 0h1v59h-1v-59z" fill="#FAFDFF"/>
<path transform="translate(279,714)" d="m0 0h1v46h-1v-46z" fill="#060A08"/>
<path transform="translate(1318,612)" d="m0 0h1v39h-1v-39z" fill="#FAFDFF"/>
<path transform="translate(1318,572)" d="m0 0h1v39h-1v-39z" fill="#FAFDFF"/>
<path transform="translate(918,412)" d="m0 0h1v39h-1v-39z" fill="#FAFDFF"/>
<path transform="translate(918,372)" d="m0 0h1v39h-1v-39z" fill="#FAFDFF"/>
<path transform="translate(918,465)" d="m0 0h1v37h-1v-37z" fill="#FAFDFF"/>
<path transform="translate(279,1184)" d="m0 0h1v29h-1v-29z" fill="#060A08"/>
<path transform="translate(918,345)" d="m0 0h1v26h-1v-26z" fill="#FAFDFF"/>
<path transform="translate(918,305)" d="m0 0h1v26h-1v-26z" fill="#FAFDFF"/>
<path transform="translate(1359,1443)" d="m0 0h1v19h-1v-19z" fill="#060A08"/>
<path transform="translate(292,1465)" d="m0 0h12v1h-12v-1z" fill="#FAFDFF"/>
<path transform="translate(918,452)" d="m0 0h1v12h-1v-12z" fill="#FAFDFF"/>
<path transform="translate(918,332)" d="m0 0h1v12h-1v-12z" fill="#FAFDFF"/>
<path transform="translate(918,292)" d="m0 0h1v12h-1v-12z" fill="#FAFDFF"/>
<path transform="translate(305,1465)" d="m0 0h10v1h-10v-1z" fill="#FAFDFF"/>
<path transform="translate(1038,214)" d="m0 0h1v10h-1v-10z" fill="#FAFDFF"/>
<path transform="translate(1318,1124)" d="m0 0h1v8h-1v-8z" fill="#FAFDFF"/>
<path transform="translate(1134,225)" d="m0 0h7v1h-7v-1z" fill="#FAFDFF"/>
<path transform="translate(1372,1375)" d="m0 0h1v6h-1v-6z" fill="#060A08"/>
<path transform="translate(1372,1140)" d="m0 0h1v6h-1v-6z" fill="#060A08"/>
<path transform="translate(279,1074)" d="m0 0h1v6h-1v-6z" fill="#060A08"/>
<path transform="translate(1335,425)" d="m0 0h6v1h-6v-1z" fill="#FAFDFF"/>
<path transform="translate(918,285)" d="m0 0h1v6h-1v-6z" fill="#FAFDFF"/>
<path transform="translate(1318,652)" d="m0 0h1v5h-1v-5z" fill="#FAFDFF"/>
<path transform="translate(279,763)" d="m0 0 1 4z" fill="#060A08"/>
<path transform="translate(1078,257)" d="m0 0 1 4z" fill="#FAFDFF"/>
<path transform="translate(286,65)" d="m0 0c3 1 3 1 3 1z" fill="#FAFDFF"/>
</svg>
