<svg width="34" height="36" viewBox="0 0 34 36" fill="none" xmlns="http://www.w3.org/2000/svg">
<g filter="url(#filter0_d_164_26)">
<path fill-rule="evenodd" clip-rule="evenodd" d="M8.34615 7.4081C8.34615 5.48635 9.92464 3.92847 11.8718 3.92847H17C17.531 3.92847 17.9615 4.35335 17.9615 4.87746C17.9615 5.40157 17.531 5.82645 17 5.82645H11.8718C10.9867 5.82645 10.2692 6.53458 10.2692 7.4081V8.67341C10.2692 9.19753 9.83874 9.6224 9.30769 9.6224C8.77665 9.6224 8.34615 9.19753 8.34615 8.67341V7.4081ZM9.30769 20.3776C9.83874 20.3776 10.2692 20.8025 10.2692 21.3266V22.5919C10.2692 23.4654 10.9867 24.1736 11.8718 24.1736H17C17.531 24.1736 17.9615 24.5984 17.9615 25.1226C17.9615 25.6467 17.531 26.0715 17 26.0715H11.8718C9.92464 26.0715 8.34615 24.5137 8.34615 22.5919V21.3266C8.34615 20.8025 8.77665 20.3776 9.30769 20.3776Z" fill="white"/>
<path fill-rule="evenodd" clip-rule="evenodd" d="M17.9615 5.98272C17.9615 4.88113 19.074 4.11694 20.1207 4.49953L26.531 6.8427C27.1596 7.0725 27.5769 7.66423 27.5769 8.32589V21.6741C27.5769 22.3357 27.1596 22.9275 26.531 23.1573L20.1207 25.5005C19.074 25.8831 17.9615 25.1189 17.9615 24.0173V5.98272ZM20.7886 2.7197C18.4859 1.878 16.0385 3.55923 16.0385 5.98272V24.0173C16.0385 26.4408 18.4859 28.122 20.7886 27.2803L27.1989 24.9371C28.5819 24.4315 29.5 23.1297 29.5 21.6741V8.32589C29.5 6.87025 28.5819 5.56844 27.1989 5.06287L20.7886 2.7197Z" fill="white"/>
<path fill-rule="evenodd" clip-rule="evenodd" d="M9.90983 11.7983C10.2853 11.4277 10.8941 11.4277 11.2697 11.7983L13.8338 14.329C14.2093 14.6996 14.2093 15.3004 13.8338 15.671L11.2697 18.2017C10.8941 18.5723 10.2853 18.5723 9.90983 18.2017C9.53433 17.8311 9.53433 17.2302 9.90983 16.8596L10.8325 15.949H5.46154C4.9305 15.949 4.5 15.5241 4.5 15C4.5 14.4759 4.9305 14.051 5.46154 14.051H10.8325L9.90983 13.1404C9.53433 12.7698 9.53433 12.1689 9.90983 11.7983Z" fill="white"/>
</g>
<defs>
<filter id="filter0_d_164_26" x="-2" y="0" width="38" height="38" filterUnits="userSpaceOnUse" color-interpolation-filters="sRGB">
<feFlood flood-opacity="0" result="BackgroundImageFix"/>
<feColorMatrix in="SourceAlpha" type="matrix" values="0 0 0 0 0 0 0 0 0 0 0 0 0 0 0 0 0 0 127 0" result="hardAlpha"/>
<feOffset dy="4"/>
<feGaussianBlur stdDeviation="2"/>
<feComposite in2="hardAlpha" operator="out"/>
<feColorMatrix type="matrix" values="0 0 0 0 0 0 0 0 0 0 0 0 0 0 0 0 0 0 0.25 0"/>
<feBlend mode="normal" in2="BackgroundImageFix" result="effect1_dropShadow_164_26"/>
<feBlend mode="normal" in="SourceGraphic" in2="effect1_dropShadow_164_26" result="shape"/>
</filter>
</defs>
</svg>
