<?xml version="1.0" encoding="UTF-8"?>
<svg version="1.1" viewBox="0 0 1600 1600" width="1280" height="1280" xmlns="http://www.w3.org/2000/svg">
<path transform="translate(65)" d="m0 0h1145v3h2v2c0.95 0.14 1.9 0.29 2.88 0.44 3.12 0.56 3.12 0.56 5.12 1.56v3c0.86 0.27 1.72 0.54 2.61 0.82 3.33 1.16 6.41 2.51 9.58 4.06 1.02 0.49 2.05 0.98 3.1 1.49 2.75 1.65 3.88 3.07 5.71 5.63 2.32 1.02 4.66 2.02 7 3 2.15 3.23 2.2 4.28 2 8 0.84 0.34 0.84 0.34 1.69 0.69 5.33 3.02 8.49 7.8 11.6 12.9 0.36 0.58 0.72 1.15 1.09 1.74 1.69 2.77 2.6 4.33 2.6 7.64h2l1 7h2c3.7 6.34 4.64 11.2 4.75 18.5 0.03 0.97 0.06 1.95 0.09 2.95 0.07 2.85 0.12 5.7 0.16 8.55 0.02 0.72 0.03 1.45 0.05 2.19 0.14 7.28-0.06 14.5-0.41 21.8-0.64 13.6-0.79 27.1-0.77 40.7 0 2.32 0 4.63-0.01 6.95 0 4.83 0 9.67 0.01 14.5 0.01 6.04 0 12.1 0 18.1-0.02 26 0.14 52 0.78 78 0.05 1.84 0.09 3.68 0.14 5.52 0.02 0.87 0.04 1.73 0.06 2.63 0.15 6.39 0.18 12.8 0.09 19.2-0.04 3.62 0.33 6.86 1.06 10.4l-1 1c-0.25 3.2-0.19 6.42-0.19 9.62-0.02 1.34-0.02 1.34-0.03 2.7-0.02 5.32 0.48 9.66 2.22 14.7l1 3c-2.33 0.78-4.61 1.42-7 2v-2c-0.99-0.33-1.98-0.66-3-1-1.82-1.78-1.82-1.78-3.69-3.94-0.62-0.71-1.24-1.42-1.88-2.15-1.43-1.91-1.43-1.91-1.43-3.91-1.08-0.31-1.08-0.31-2.19-0.62-3.78-1.86-5.33-3.98-7.81-7.38v-2c-1.08-0.31-1.08-0.31-2.19-0.62-3.78-1.86-5.33-3.98-7.81-7.38v-2c-0.74-0.23-1.48-0.45-2.25-0.69-3.29-1.57-4.72-3.31-6.75-6.31v-2h-2v-2h-2v-2h-3c-1.05-1.64-2.05-3.3-3-5l-2-1v-2c-0.99-0.33-1.98-0.66-3-1l-1-7h-2c0-0.99-0.01-1.98-0.01-3.01-0.08-24.1-0.17-48.2-0.28-72.3-0.05-11.7-0.09-23.3-0.13-35-0.03-10.2-0.07-20.3-0.12-30.5-0.03-5.39-0.05-10.8-0.06-16.2-0.02-5.06-0.04-10.1-0.07-15.2-0.01-1.86-0.01-3.72-0.01-5.58-0.01-2.53-0.02-5.07-0.04-7.6v-2.25c-0.04-3.7-0.17-5.28-2.28-8.44-0.14-1.16-0.29-2.31-0.44-3.5-0.59-3.71-0.91-4.17-3.56-6.5-0.71-1.65-1.37-3.32-2-5-1.78-4.36-1.78-4.36-5.19-7.38-0.89-0.3-0.89-0.3-1.81-0.62v-2c-0.77 0-1.54 0.01-2.33 0.01-7.26 0.04-14.5 0.07-21.8 0.09-3.73 0.01-7.45 0.03-11.2 0.05-3.6 0.02-7.2 0.03-10.8 0.04-1.37 0-2.75 0.01-4.12 0.02-1.92 0.02-3.85 0.02-5.77 0.02-1.09 0-2.19 0.01-3.32 0.01-2.71-0.24-2.71-0.24-5.71-2.24-9.18-1.8-19-1.14-28.3-1.12-1.75 0-3.51 0-5.26-0.01-4.82 0-9.64 0-14.5 0.01h-15.7-27.6c-13.7 0.01-27.3 0.01-41 0.01-23-0.01-46 0-69 0-22.8 0.01-45.5 0.01-68.3 0.02h-2.14-19.4-48.2-2.21c-35.6 0-71.1 0.01-107 0.01-12.3 0.01-24.7 0.01-37 0.01h-2.32c-35.6 0.01-71.1 0.01-107 0.01-2.31 0.01-4.61 0.01-6.92 0.01h-45.9c-30.4 0-60.9 0-91.4 0.01h-4.35c-84.6 0.01-169 0.02-289 0.04l-1 3c-0.68 0.01-1.36 0.03-2.06 0.04-3.09 0.08-6.17 0.18-9.25 0.27-1.07 0.03-2.15 0.05-3.25 0.07-1.03 0.04-2.06 0.07-3.12 0.11-0.94 0.02-1.89 0.05-2.87 0.08-2.86 0.5-3.74 1.13-5.45 3.43-0.5 1.48-0.5 1.48-1 3-0.6 0.25-1.2 0.5-1.81 0.75-2.49 1.42-2.9 2.32-4.19 4.81-2 3.44-2 3.44-4.12 4.15-0.62 0.1-1.24 0.19-1.88 0.29 0 1.3 0 2.61 0.01 3.95 0.02 12.3 0.03 24.6 0.04 36.9 0.01 6.32 0.01 12.6 0.03 19 0.01 6.1 0.01 12.2 0.01 18.3 0.01 2.32 0.01 4.65 0.02 6.98v9.76c0.01 0.97 0.01 1.93 0.01 2.92v2.7 2.33c-0.13 2.5-0.6 4.82-1.12 7.26-0.27 4.5-0.07 8.91 0.56 13.4 0.44 3.62 0.44 3.62-0.56 6.62h-2c-0.01 35.5-0.02 71-0.03 107v2.11c-0.02 74.4-0.04 149-0.05 223 0 1.65-0.01 3.3-0.01 4.96 0 34.7-0.01 69.4-0.01 104 0 17.4-0.01 34.9-0.01 52.3v7.89c-0.01 40.5-0.01 81-0.03 122v2.64c0 14-0.01 28.1-0.01 42.1-0.01 40.4-0.03 80.9-0.03 121v2.52c0 18.2-0.01 36.5-0.01 54.8v22 2.43c0 25.9-0.01 51.8-0.02 77.7-0.01 26.1-0.02 52.2-0.02 78.3v10.8 2.14c0 11.2 0 22.4-0.01 33.6-0.01 11-0.01 22 0 33 0 5.89 0 11.8-0.01 17.7-0.01 5.35-0.01 10.7 0 16.1v5.79c-0.01 2.61-0.01 5.22 0 7.84 0 0.74-0.01 1.49-0.01 2.26 0.03 5.01 0.89 9.35 2.26 14.2h-2c0.14 1.48 0.29 2.96 0.44 4.44 0.08 0.82 0.16 1.64 0.24 2.49 0.11 2.06 0.11 2.06 1.32 3.07 0.41 3.11 0.52 6.25 0.69 9.38 0.06 0.87 0.12 1.75 0.18 2.65 0.07 1.27 0.07 1.27 0.14 2.56 0.05 0.77 0.09 1.54 0.14 2.34-0.15 2.07-0.15 2.07-2.15 5.07l2 3-1 2c-0.21 5.61-0.21 5.61 1 11 0.08 2.54 0.11 5.05 0.08 7.59 0 0.77 0 1.54-0.01 2.34 0 1.67-0.01 3.34-0.03 5.02-0.01 2.65-0.02 5.3-0.03 7.96-0.03 7.54-0.06 15.1-0.11 22.6-0.02 4.62-0.04 9.23-0.05 13.8-0.01 1.76-0.02 3.52-0.03 5.27-0.02 2.46-0.03 4.92-0.03 7.38-0.01 0.72-0.02 1.45-0.03 2.19 0.01 4.32 0.69 7.76 2.24 11.8 0.17 0.76 0.33 1.53 0.5 2.31 0.17 0.56 0.33 1.12 0.5 1.69l2 1c3.49 4.06 6.09 8 8 13 3.57 2.38 5.56 2.35 9.81 2.56 4.48 0.24 8.77 0.68 13.2 1.44 2.9 0.28 5.8 0.5 8.71 0.72 2.29 0.28 2.29 0.28 3.29 1.28 1.66 0.1 3.32 0.13 4.98 0.14 1.63 0.01 1.63 0.01 3.29 0.02h3.66c1.27 0 2.54 0.01 3.85 0.01 3.54 0.02 7.09 0.02 10.6 0.03 3.81 0.01 7.63 0.02 11.4 0.04 6.62 0.02 13.2 0.04 19.8 0.05 9.57 0.02 19.1 0.05 28.7 0.08 15.5 0.05 31 0.09 46.6 0.13 15.1 0.04 30.2 0.08 45.2 0.13 0.93 0 1.86 0 2.82 0.01 4.65 0.01 9.31 0.02 14 0.04 38.7 0.11 77.4 0.22 116 0.32l1-2h18v-2c50.1-0.07 100-0.12 150-0.15 5.91-0.01 11.8-0.01 17.7-0.01 1.17-0.01 2.35-0.01 3.56-0.01 19.1-0.01 38.1-0.03 57.2-0.06 19.6-0.03 39.1-0.05 58.7-0.05 12.1-0.01 24.1-0.02 36.2-0.04 8.27-0.02 16.6-0.02 24.8-0.02 4.78 0 9.55 0 14.3-0.02 4.37-0.01 8.74-0.01 13.1 0 1.58 0 3.17-0.01 4.75-0.01 2.15-0.02 4.3-0.01 6.45 0h3.62c3.67 0.42 6.01 1.68 9.27 3.37 2.6 0.44 2.6 0.44 5.25 0.38 1.53 0.02 1.53 0.02 3.09 0.03 1.11 0 2.21-0.01 3.35-0.01 1.19 0.01 2.37 0.01 3.59 0.02 3.29 0.01 6.57 0.02 9.85 0.01 3.54 0 7.08 0.02 10.6 0.03 6.14 0.03 12.3 0.04 18.4 0.04 8.86 0.01 17.7 0.03 26.6 0.06 14.4 0.04 28.8 0.07 43.2 0.09 14 0.02 28 0.05 41.9 0.09h2.61c4.32 0.02 8.64 0.03 13 0.04 35.9 0.09 71.7 0.16 108 0.22v-2h16v-2h5v1h24v-1c0.98 0.1 1.96 0.19 2.96 0.29 7.43 0.63 13.8 0.86 21-1.29 0.11-0.6 0.21-1.21 0.32-1.83 1.11-3.56 3.74-5.05 6.68-7.17h3c0.12-0.76 0.25-1.53 0.38-2.31 0.62-2.69 0.62-2.69 2.62-5.69 0.63-1.94 0.63-1.94 1.06-4 0.55-2.41 1.16-4.65 1.94-7 0.1-2.59 0.14-5.14 0.13-7.73 0-1.19 0-1.19 0.01-2.41v-8.02c0-1.92 0.01-3.83 0.01-5.74 0.01-4.13 0.02-8.25 0.02-12.4 0-6.52 0.02-13 0.04-19.6 0.01-2.23 0.01-4.46 0.02-6.69 0-1.12 0.01-2.24 0.01-3.39 0.04-15.2 0.07-30.4 0.09-45.6 0-10.2 0.03-20.5 0.07-30.7 0.02-5.42 0.03-10.8 0.02-16.3 0-5.1 0.01-10.2 0.04-15.3 0.01-1.87 0.01-3.74 0-5.62-0.01-2.55 0.01-5.1 0.03-7.66-0.01-0.74-0.02-1.48-0.03-2.24 0.06-3.65 0.47-5.64 2.45-8.74 2.09-2 2.09-2 4.09-2l2-4h3c0.06-0.56 0.12-1.11 0.19-1.69 1.16-3.31 3.2-5.01 5.81-7.31 0.99-0.33 1.98-0.66 3-1 0.46-1.24 0.46-1.24 0.94-2.5 0.52-1.24 0.52-1.24 1.06-2.5 2.12-0.81 2.12-0.81 4-1 0.11-0.57 0.21-1.15 0.32-1.74 0.78-2.59 1.88-4.28 3.49-6.45 0.5-0.69 1.01-1.39 1.52-2.1 1.88-1.92 3.05-2.33 5.67-2.71 0.08-0.58 0.16-1.15 0.25-1.75 0.98-2.93 2.48-4.16 4.75-6.25l2.44-2.44c1.67-1.67 3.36-3.34 5.06-5 2.68-2.74 5.08-5.59 7.5-8.56 3.64 1.91 5.63 3.09 7 7 0.14 2.79 0.19 5.47 0.12 8.25 0 0.75-0.01 1.49-0.02 2.26-0.03 1.83-0.06 3.66-0.1 5.49-0.99 0.33-1.98 0.66-3 1 0 0.6 0 1.19 0.01 1.81 0.02 6.2 0.03 12.4 0.04 18.6 0.01 2.31 0.02 4.63 0.03 6.94 0.01 3.32 0.01 6.64 0.02 9.96 0 1.04 0.01 2.08 0.01 3.16v2.91c0.01 0.84 0.01 1.69 0.01 2.57-0.12 2.06-0.12 2.06-1.12 4.06-0.09 1.58-0.13 3.17-0.13 4.75 0 1.01 0 2.01-0.01 3.05 0.01 1.66 0.01 1.66 0.01 3.36v3.53c-0.01 3.21-0.01 6.43 0 9.64 0 3.41 0 6.82-0.01 10.2 0 5.78 0 11.6 0.01 17.3v17.5c-0.01 8.47-0.01 16.9 0 25.4v2.1c0.02 20.6 0.23 41.1 0.87 61.6 0.27 9.35 0.18 18.5-0.5 27.9-0.3 4.55-0.31 9.05-0.24 13.6h-2c-0.06 1.16-0.06 1.16-0.11 2.34-0.07 1-0.13 2-0.2 3.04-0.06 0.99-0.12 1.99-0.18 3.02-0.17 0.86-0.34 1.72-0.51 2.6l-3 2c-0.34 2.33-0.67 4.67-1 7-1.5 1.69-1.5 1.69-3 3-0.71 2.1-0.71 2.1-1 4h-2l-1 4h-2l-1 6h-2v3c-0.99 0.33-1.98 0.66-3 1l-2 3h-2v5c-6 3-6 3-8.31 4-2.04 0.96-2.04 0.96-2.69 4h-5l-1 3h-3l-1 3c-1.98 0.33-3.96 0.66-6 1v2c-1.98 0.33-3.96 0.66-6 1l-1 3c-2.07 0.95-2.07 0.95-4.56 1.69-0.83 0.25-1.66 0.5-2.51 0.76-0.63 0.18-1.27 0.36-1.93 0.55v4c-34.8 0.03-69.6 0.06-104 0.1h-2.06c-73 0.06-146 0.12-219 0.15-1.62 0-3.24 0.01-4.86 0.01-34 0.01-68 0.03-102 0.05-17.1 0-34.2 0.01-51.2 0.02h-7.73c-39.7 0.02-79.4 0.04-119 0.08h-2.59c-13.8 0.02-27.5 0.03-41.3 0.05-39.6 0.03-79.3 0.07-119 0.09h-2.47c-17.9 0-35.8 0.01-53.6 0.01-7.19 0.01-14.4 0.01-21.6 0.01h-2.38c-25.4 0.01-50.8 0.03-76.2 0.07-25.6 0.03-51.1 0.05-76.7 0.04h-10.6-2.1c-11 0-22 0.01-32.9 0.04-10.8 0.03-21.6 0.03-32.3 0.01-5.77-0.01-11.5-0.01-17.3 0.02-5.24 0.02-10.5 0.02-15.7-0.01-1.89 0-3.79 0.01-5.68 0.02-2.56 0.02-5.11 0.01-7.67-0.01-0.74 0.01-1.48 0.03-2.24 0.04-2.06-0.04-2.06-0.04-5.55-0.79-2.33-2.97-2.33-2.97-4-6-2.46-1.23-2.46-1.23-5-2-2.31-1.5-2.31-1.5-4-3v-2c-0.99-0.33-1.98-0.66-3-1-5.65-2.65-5.65-2.65-8-5-1.65-0.71-3.32-1.38-5-2v-2h-3c-2.19-1.81-2.19-1.81-4-4v-3c-0.58-0.25-1.16-0.49-1.75-0.75-2.58-1.44-4.23-3.1-6.25-5.25-0.74-0.7-1.48-1.4-2.25-2.12-1.75-1.88-1.75-1.88-1.75-3.88-0.99-0.33-1.98-0.66-3-1-1.39-1.78-1.39-1.78-2.69-3.94-0.43-0.71-0.87-1.42-1.32-2.15-0.99-1.91-0.99-1.91-0.99-3.91-0.6-0.23-1.2-0.45-1.81-0.69-2.79-1.67-3.64-3.48-5.19-6.31-0.56-0.7-1.11-1.4-1.69-2.12-1.31-1.88-1.31-1.88-1.31-4.88-0.99-0.33-1.98-0.66-3-1v-1463h2l1-5h2c0.29-0.58 0.58-1.17 0.88-1.77 2.99-5.98 2.99-5.98 4.05-8.07 0.72-1.45 1.42-2.92 2.11-4.39 0.51-1.06 0.51-1.06 1.02-2.15 0.3-0.64 0.6-1.29 0.91-1.96 1.03-1.66 1.03-1.66 4.03-3.66 1.21-3.05 1.21-3.05 2-6h2c0.39-0.7 0.78-1.4 1.19-2.12 2-3.18 4.16-5.04 7.03-7.39 2.42-2.02 4.58-4.23 6.78-6.49 1-1 1-1 3.56-1.06 1.21 0.03 1.21 0.03 2.44 0.06v-3c1.94-1.43 1.94-1.43 4.56-2.88 3.2-1.81 6.28-3.63 9.25-5.81 3.19-2.31 3.19-2.31 6.13-4 0.68-0.43 1.36-0.86 2.06-1.31v-2zm-49 45-1 2h2l-1-2zm-10 17 1 2zm1263 1193 1 2zm-10 10 1 2zm-20 23-1 2h2l-1-2zm-20 20 1 2zm-1139 228v1h13v-1h-13zm362 0v1h393v-1h-393z" fill="#F9FBFB"/>
<path transform="translate(1218,416)" d="m0 0v2c0.87 0.15 0.87 0.15 1.75 0.31 2.61 0.8 4.11 2 6.25 3.69 0.8 0.43 1.61 0.87 2.44 1.31 3.26 2.15 5.11 4.65 7.56 7.69l2 1v2c0.7 0.25 1.4 0.5 2.12 0.75 3.57 1.55 7.11 3.48 9.88 6.25 0.04 1.67 0.04 3.33 0 5l4 1v2c0.78 0.12 1.57 0.25 2.38 0.38 2.62 0.62 2.62 0.62 4.62 2.62v3c0.99 0.33 1.98 0.66 3 1 1.58 1.26 3.12 2.58 4.62 3.94 0.8 0.71 1.6 1.42 2.42 2.15 1.96 1.91 1.96 1.91 2.96 3.91 1.66 1.01 3.33 2.01 5 3 1.02 0.98 2.02 1.98 3 3l2 1v2c0.84 0.09 0.84 0.09 1.69 0.19 3.3 1.16 5.03 3.21 7.31 5.81v2c0.7 0.17 1.4 0.33 2.12 0.5 3.61 1.88 5.11 4.2 7.35 7.53 2.37 3.05 5.33 4.84 8.53 6.97v3h2l2 3 6 4v3h2v3c0.78 0.12 1.57 0.25 2.38 0.38 2.62 0.62 2.62 0.62 4.62 2.62 0.12 3.12 0.12 3.12 0 6h3c1.69 1.38 1.69 1.38 3 3v2c2.47 0.5 2.47 0.5 5 1v2h2c0.39 0.89 0.78 1.77 1.19 2.69 2.25 4.12 4.74 7.33 9.06 9.37 0.87 0.47 0.87 0.47 1.75 0.94 0.36 1.33 0.7 2.66 1 4 0.99 0.33 1.98 0.66 3 1 0.15 0.96 0.15 0.96 0.31 1.94 0.23 0.68 0.46 1.36 0.69 2.06 2.8 1.13 2.8 1.13 6 2 4.53 2.16 6.33 4.82 9 9l6 4v3h2v3c1.08 0.03 1.08 0.03 2.19 0.06 4.07 1.36 5.8 4.24 7.81 7.94v2c0.99 0.33 1.98 0.66 3 1 1.06 1.81 1.06 1.81 2 4 0.37 0.74 0.74 1.49 1.12 2.25 0.29 0.58 0.58 1.15 0.88 1.75h3v2c0.78 0.14 1.57 0.29 2.38 0.44 2.62 0.56 2.62 0.56 4.62 1.56v6h3c1.69 1.38 1.69 1.38 3 3v2c0.78 0.12 1.57 0.25 2.38 0.38 2.62 0.62 2.62 0.62 4.62 2.62v3c0.76 0.1 1.53 0.21 2.31 0.31 2.89 0.74 3.95 1.31 5.69 3.69v3h2v3c0.72 0.04 1.44 0.08 2.19 0.12 4.12 1.29 5.35 3.36 7.81 6.88v3c0.76 0.1 1.53 0.21 2.31 0.31 2.89 0.74 3.95 1.31 5.69 3.69v3h2l2 3 6 4v3h2l2 3 6 4v3h2l2 3 6 4v3h2v3c0.76 0.1 1.53 0.21 2.31 0.31 2.89 0.74 3.95 1.31 5.69 3.69v3h2v3c0.76 0.1 1.53 0.21 2.31 0.31 2.89 0.74 3.95 1.31 5.69 3.69v3h2v3c0.76 0.1 1.53 0.21 2.31 0.31 2.89 0.74 3.95 1.31 5.69 3.69v3h2v3c0.76 0.1 1.53 0.21 2.31 0.31 2.89 0.74 3.95 1.31 5.69 3.69v3h2v3c0.72 0.23 1.44 0.45 2.19 0.69 3.39 1.58 5.35 3.51 7.81 6.31l1 3c1.32 0.7 2.65 1.37 4 2 1.75 1.5 1.75 1.5 3 3v2h2l2 3 3 2c0.9 1.14 0.9 1.14 1.81 2.31 1.78 2.18 3.28 3.66 5.44 5.38 0.91 0.76 1.82 1.52 2.75 2.31v2h3c2 3 2 3 2 6 1.08 0.34 1.08 0.34 2.19 0.69 3.39 1.58 5.38 3.47 7.81 6.31v3c0.99 0.33 1.98 0.66 3 1v2c0.93 0.39 1.86 0.78 2.81 1.19 3.47 1.97 4.31 3.41 6.19 6.81 0.99 0.33 1.98 0.66 3 1 1.65 2.6 2 3.86 2 7 0.99-0.33 1.98-0.66 3-1 2 1.38 2 1.38 4 3 0.99 0.33 1.98 0.66 3 1v27h-5c-1.71 1.94-1.71 1.94-3 4h-2v3h-2l-1 2h-2c-0.4 1.21-0.4 1.21-0.81 2.44-0.39 0.84-0.79 1.69-1.19 2.56-0.99 0.33-1.98 0.66-3 1-3.57 3.28-6.63 6.89-9.67 10.6-0.44 0.45-0.88 0.9-1.33 1.36h-2v2c-0.99 0.33-1.98 0.66-3 1l-1 3c-0.64 0.12-1.28 0.25-1.94 0.38-0.68 0.2-1.36 0.41-2.06 0.62-1.3 2.49-1.3 2.49-2 5h-4l-1 5h-3v3h-2l-1 3h-4v4c-2.67 3.19-4.74 5.53-9 6-0.15 0.9-0.15 0.9-0.31 1.81-0.79 2.5-1.66 3.57-3.69 5.19h-2v2l-4 1v3c-5.23 5-5.23 5-9 5-0.15 0.9-0.15 0.9-0.31 1.81-0.79 2.5-1.79 3.45-3.69 5.19l-1 2h-3l-1 3h-2l-1 3h-2v3c-0.99 0.33-1.98 0.66-3 1l-2 3h-2l-1 3h-2l-1 4h-3l-1 3c-2.06 0.69-2.06 0.69-4 1l-1 5h-4v4h-3v2l-2 1-1 3c-2.06 0.69-2.06 0.69-4 1v3c-1.66 1.02-3.32 2.02-5 3l-1 3-2 1-1 3h-4c-0.29 0.6-0.58 1.2-0.88 1.81-1.12 2.19-1.12 2.19-3.12 5.19h-3l-1 3h-2c-0.23 0.54-0.45 1.07-0.69 1.62-1.78 3.23-3.79 5.68-6.31 8.38h-3v2l-2 1-1 3c-1.99 1.35-3.99 2.69-6 4l-2 3h-2v3c-1.65 1.03-3.32 2.02-5 3-1.02 1.32-2.02 2.65-3 4h-2c-0.1 0.64-0.21 1.28-0.31 1.94-0.23 0.68-0.46 1.36-0.69 2.06-0.99 0.33-1.98 0.66-3 1-3.52 3.16-3.52 3.16-6 7.12-1.41 2.65-3.42 3.43-6 4.88-2.41 2.06-2.96 2.89-4 6-0.99 0.33-1.98 0.66-3 1l-2 3h-2l-1 3h-2v3l-2 1-2 3c-0.99-0.33-1.98-0.66-3-1-0.1 0.58-0.21 1.15-0.31 1.75-0.81 2.63-1.82 4.24-3.69 6.25h-3l-1 3h-2c-0.23 0.54-0.45 1.07-0.69 1.62-1.78 3.23-3.79 5.68-6.31 8.38h-3v2l-2 1-1 3c-1.99 1.35-3.99 2.69-6 4l-2 3h-2v3c-1.97 1.37-3.98 2.7-6 4l-2 3h-4l1 4h-3l-1 3-5 5c-0.52 0.93-1.03 1.86-1.56 2.81-0.48 0.72-0.95 1.45-1.44 2.19h-4l-1 4h-2v2c-1.64 1.59-1.64 1.59-3.81 3.38-2.25 1.86-4.09 3.49-5.83 5.85-0.45 0.58-0.9 1.17-1.36 1.77h-2c-0.1 0.56-0.21 1.11-0.31 1.69-0.87 2.9-1.81 4.92-3.69 7.31-3.19 0.81-3.19 0.81-6 1-0.06 0.6-0.12 1.2-0.19 1.81-1.15 3.09-2.92 3.78-5.81 5.19h-2v3c-1.57 1.43-1.57 1.43-3.69 2.88-4.06 2.9-7.44 6.11-10.8 9.76-1.44 1.51-2.95 2.94-4.47 4.36h-3l-1 3h-2l-1 3h-3l-1 4h-2v2c-0.99 0.33-1.98 0.66-3 1l-1 3-5 1c-0.08 0.78-0.16 1.57-0.25 2.38-0.75 2.62-0.75 2.62-2.56 3.68-0.72 0.31-1.45 0.62-2.19 0.94-1.35 1.31-2.69 2.64-4 4l-2 1-2 4h-9l-1 3c-6.15 0.81-10.9-1.87-16-5-1.8-1.54-1.8-1.54-3-3v-2h-3c-5.7-4.7-10.1-12.3-11.5-19.5-0.34-5.89 1.32-10.1 4.19-15.2 1.38-2.33 1.38-2.33 2.27-5.05 0.33-0.75 0.67-1.5 1.02-2.27 0.99-0.33 1.98-0.66 3-1v-3l4-1c0.14-0.89 0.14-0.89 0.29-1.8 0.87-2.69 1.98-3.66 4.15-5.45 0.61-0.52 1.23-1.04 1.87-1.58 1.69-1.17 1.69-1.17 3.69-1.17 0.23-0.72 0.45-1.44 0.69-2.19 1.58-3.39 3.51-5.35 6.31-7.81 0.99-0.33 1.98-0.66 3-1 0.29-0.58 0.58-1.15 0.88-1.75 2.03-4.06 4.82-6.82 9.12-8.25 0.29-0.58 0.58-1.15 0.88-1.75 2.03-4.06 4.82-6.82 9.12-8.25 0.27-0.58 0.54-1.15 0.81-1.75 1.77-3.34 4.17-4.99 7.19-7.25h2c0.23-0.72 0.45-1.44 0.69-2.19 1.58-3.39 3.51-5.35 6.31-7.81 0.99-0.33 1.98-0.66 3-1 0.29-0.58 0.58-1.15 0.88-1.75 2.03-4.06 4.82-6.82 9.12-8.25 0.29-0.6 0.58-1.2 0.88-1.81 1.47-2.88 3.58-4.24 6.12-6.19l1-2h3l1-4 4-1c0.08-0.62 0.16-1.24 0.25-1.88 0.75-2.12 0.75-2.12 2.61-3.04 2.39-1.21 3.53-2.44 5.2-4.52 1.89-2.31 3.83-4.45 5.94-6.56 1.78-2.07 3.53-4.16 5.28-6.26 1.72-1.74 1.72-1.74 4.72-2.74 0.27-0.58 0.54-1.15 0.81-1.75 1.98-3.75 5.4-6.36 9.19-8.25l1-3c1.56-1.61 1.56-1.61 3.44-3.19 0.92-0.79 0.92-0.79 1.87-1.6 1.69-1.21 1.69-1.21 3.69-1.21 0.21-0.72 0.41-1.44 0.62-2.19 1.86-3.78 3.98-5.33 7.38-7.81h2c0.23-0.72 0.45-1.44 0.69-2.19 1.58-3.39 3.51-5.35 6.31-7.81 0.99-0.33 1.98-0.66 3-1 0.29-0.58 0.58-1.15 0.88-1.75 2.03-4.06 4.82-6.82 9.12-8.25 0.27-0.58 0.54-1.15 0.81-1.75 1.77-3.34 4.17-4.99 7.19-7.25h2c0.23-0.72 0.45-1.44 0.69-2.19 1.58-3.39 3.51-5.35 6.31-7.81 0.99-0.33 1.98-0.66 3-1 0.69-1.32 1.35-2.66 2-4 1.66-1.7 1.66-1.7 3.5-3.25 0.61-0.52 1.22-1.04 1.84-1.58 1.66-1.17 1.66-1.17 3.66-1.17 0.14-0.89 0.14-0.89 0.29-1.8 0.87-2.69 1.98-3.66 4.15-5.45 0.61-0.52 1.23-1.04 1.87-1.58 1.69-1.17 1.69-1.17 3.69-1.17 0.04-0.56 0.08-1.11 0.12-1.69 1.37-3.6 3.79-5.04 6.88-7.31h2c0.16-0.68 0.33-1.36 0.5-2.06 1.88-3.68 4.33-5.62 7.47-8.24 3.31-2.77 6.26-5.88 9.22-9.01 1.81-1.69 1.81-1.69 3.81-1.69 0.09-0.59 0.19-1.19 0.29-1.8 0.87-2.69 1.98-3.66 4.15-5.45 0.61-0.52 1.23-1.04 1.87-1.58 1.69-1.17 1.69-1.17 3.69-1.17 0.04-0.56 0.08-1.11 0.12-1.69 1.37-3.6 3.79-5.04 6.88-7.31h2c0.21-0.72 0.41-1.44 0.62-2.19 1.86-3.78 3.98-5.33 7.38-7.81h2c0.23-0.72 0.45-1.44 0.69-2.19 1.59-3.42 3.42-5.4 6.31-7.81h4l2-4-1-1c3.09-1.76 4.23-2 8-2 0.09-0.93 0.09-0.93 0.19-1.88 0.27-0.7 0.53-1.4 0.81-2.12 1.66-0.68 3.33-1.35 5-2 1.28-1.98 1.28-1.98 2-4l1-1 1-8h-795v-2h-3v2h-78l-2-4h-12l-1 4-5-1v-2h-6l-1 2h-3v-2c-1.46-0.08-2.92-0.14-4.38-0.19-1.21-0.05-1.21-0.05-2.46-0.1-0.71 0.09-1.42 0.19-2.16 0.29l-2 3c-2.62 0.19-2.62 0.19-5 0-0.5-1.49-0.5-1.49-1-3h-25l-1 2h-4v-2c-0.96-0.16-0.96-0.16-1.94-0.33-5.42-0.99-10.1-2.29-15.1-4.67v-8h-2c-1.7-6.28-2.28-12-1.88-18.4 0.06-0.83 0.11-1.66 0.16-2.52 0.62-8.09 2.09-14.7 7.88-20.8 6.03-5.05 13.2-4.25 20.7-4.15 1.63-0.01 3.26-0.01 4.89-0.03 4.49-0.02 8.98 0 13.5 0.03 4.88 0.03 9.76 0.01 14.6 0 8.57-0.01 17.1 0 25.7 0.03 12.7 0.04 25.5 0.04 38.2 0.03 21.4-0.01 42.8 0.02 64.2 0.06 21.2 0.04 42.4 0.07 63.6 0.08h4 16c15 0.01 29.9 0.01 44.8 0.02h2.07c33.1 0.02 66.2 0.07 99.4 0.11 11.5 0.02 23 0.03 34.5 0.05h2.16c33.1 0.05 66.3 0.07 99.4 0.09 2.15 0.01 4.3 0.01 6.45 0.01 14.3 0.01 28.5 0.02 42.8 0.03 28.4 0.01 56.7 0.03 85.1 0.05 1.36 0 2.71 0 4.06 0.01 89.9 0.06 180 0.17 270 0.29l1-3 10 1-2-3v-3l-4-1v-2c-0.99-0.33-1.98-0.66-3-1-1.35-1.65-2.69-3.32-4-5l-3-2v-2c-0.99-0.33-1.98-0.66-3-1-0.69-2.06-0.69-2.06-1-4h-4c-0.27-0.8-0.54-1.61-0.81-2.44-0.39-0.84-0.79-1.69-1.19-2.56-0.99-0.33-1.98-0.66-3-1-0.14-0.64-0.29-1.28-0.44-1.94-0.35-2.2-0.35-2.2-2.31-3.12-0.74-0.31-1.49-0.62-2.25-0.94-2.69-1.31-2.69-1.31-5-3-0.16-0.85-0.33-1.69-0.5-2.56-0.16-0.81-0.33-1.61-0.5-2.44-1.66-0.69-3.33-1.35-5-2-1.96-1.87-3.39-3.79-5-6v-2h-2v-2h-3c-5-5.35-5-5.35-5-8-0.8-0.27-1.61-0.54-2.44-0.81-0.84-0.39-1.69-0.79-2.56-1.19l-1-3c-0.99-0.33-1.98-0.66-3-1-4.54-5.08-4.54-5.08-6-8-2.02-0.65-2.02-0.65-4-1-0.09-1.18-0.09-1.18-0.19-2.38-0.27-0.86-0.53-1.73-0.81-2.62-0.72-0.29-1.44-0.58-2.19-0.88-3.6-1.44-5.11-3.56-7.48-6.56-1.27-1.69-1.27-1.69-3.33-2.56v-2h-2c-5-5.48-5-5.48-5-8-0.8-0.27-1.61-0.54-2.44-0.81-0.84-0.39-1.69-0.79-2.56-1.19l-1-3c-0.99-0.33-1.98-0.66-3-1-4.54-5.08-4.54-5.08-6-8-2.02-0.65-2.02-0.65-4-1l-1-5h-2v-2c-0.87-0.37-0.87-0.37-1.75-0.75-2.58-1.43-4.31-3.03-6.25-5.25v-2h-2v-2h-3c-5-5.35-5-5.35-5-8-0.8-0.27-1.61-0.54-2.44-0.81-0.84-0.39-1.69-0.79-2.56-1.19l-1-3c-0.99-0.33-1.98-0.66-3-1-4-4.46-4-4.46-4-7-1.98-0.66-3.96-1.32-6-2l-1-5h-2c-1.38-1.29-2.71-2.63-4-4-0.74-0.7-1.49-1.4-2.25-2.12-1.75-1.88-1.75-1.88-1.75-3.88h-2v-2h-3c-5-5.35-5-5.35-5-8-0.8-0.27-1.61-0.54-2.44-0.81-0.84-0.39-1.69-0.79-2.56-1.19l-1-3c-0.99-0.33-1.98-0.66-3-1-4-4.46-4-4.46-4-7-1.98-0.66-3.96-1.32-6-2l-1-5h-2v-2h-3c-2.69-2.31-2.69-2.31-5-5v-3h-3v-2c-0.99-0.33-1.98-0.66-3-1v-2l-4-2v-3c-0.8-0.27-1.61-0.54-2.44-0.81-0.84-0.39-1.69-0.79-2.56-1.19l-1-3c-0.58-0.29-1.15-0.58-1.75-0.88-3.04-1.52-4.99-3.61-7.25-6.12v-2l-4-1c-0.09-1.18-0.09-1.18-0.19-2.38-0.27-0.86-0.53-1.73-0.81-2.62-2.48-1.37-2.48-1.37-5-2v-2c-0.87-0.37-0.87-0.37-1.75-0.75-2.58-1.43-4.31-3.03-6.25-5.25v-2h-2c-2.62-2.31-2.62-2.31-5-5v-3c-0.58-0.1-1.17-0.2-1.77-0.3-2.68-0.84-3.89-1.97-5.87-3.94-0.66-0.65-1.32-1.31-1.99-1.98-0.68-0.69-1.36-1.38-2.06-2.09-0.69-0.68-1.38-1.36-2.09-2.06-0.98-0.98-0.98-0.98-1.98-1.99-0.6-0.6-1.2-1.21-1.81-1.82-1.55-1.97-1.84-3.43-2.43-5.82-1.65-0.7-3.32-1.37-5-2l-1-3c-0.66-0.27-1.32-0.54-2-0.81-0.66-0.39-1.32-0.79-2-1.19-0.75-3.12-0.75-3.12-1-6-0.99-0.33-1.98-0.66-3-1v-2c-0.99-0.33-1.98-0.66-3-1-1.19-2.06-1.19-2.06-2-4h-2c-4.5-15.6-4.5-15.6-3-22 1.78-2.16 3.67-3.37 6-5 0.68-1.66 1.35-3.33 2-5 2.06-0.62 2.06-0.62 4-1l1-3h3v-2c0.93-0.12 0.93-0.12 1.88-0.25 0.7-0.25 1.4-0.5 2.12-0.75 0.27-0.62 0.54-1.24 0.81-1.88 2.81-5.02 8.94-5.5 14.2-5.12zm-26 15-1 2h2l-1-2zm97 601 1 2zm-96 96 1 2zm-4 4 1 4z" fill="#F9FBFB"/>
<path transform="translate(1276,1323)" d="m0 0h1v127h-1v-127z" fill="#000204"/>
<path transform="translate(1276,133)" d="m0 0h1v110h-1v-110z" fill="#000204"/>
<path transform="translate(62,190)" d="m0 0h1v9h-1v-9z" fill="#000204"/>
<path transform="translate(62,1417)" d="m0 0h1v8h-1v-8z" fill="#000204"/>
<path transform="translate(1277,297)" d="m0 0h2l1 3h-3v-3z" fill="#47494A"/>
<path transform="translate(1165,1535)" d="m0 0h6v1h-6v-1z" fill="#FAFCFC"/>
<path transform="translate(1155,1535)" d="m0 0h6v1h-6v-1z" fill="#FAFCFC"/>
<path transform="translate(1482,765)" d="m0 0 4 1z" fill="#FAFCFC"/>
<path transform="translate(1478,765)" d="m0 0c3 1 3 1 3 1z" fill="#FAFCFC"/>
<path transform="translate(72,71)" d="m0 0 1 2-2-1 1-1z" fill="#000204"/>
<path transform="translate(1172,1535)" d="m0 0 2 1z" fill="#FAFCFC"/>
<path transform="translate(1162,1535)" d="m0 0 2 1z" fill="#FAFCFC"/>
<path transform="translate(1152,1535)" d="m0 0 2 1z" fill="#FAFCFC"/>
<path transform="translate(1515,892)" d="m0 0 2 1z" fill="#000204"/>
</svg>
