<svg width="30" height="30" viewBox="0 0 30 30" fill="none" xmlns="http://www.w3.org/2000/svg">
<g id="Paper-Upload">
<path id="Vector" d="M24.9424 11.0897C24.9424 10.7051 24.9424 10.4487 24.9424 10.1922C24.6834 6.08968 21.446 2.75635 17.3021 2.49994C16.5251 2.49994 15.7481 2.49994 15.1007 2.49994C13.1582 2.49994 10.4388 2.75635 8.62584 2.88455C6.81289 3.01276 5.51792 4.29481 5.38843 5.96148C5.25893 8.01276 4.99994 11.9871 4.99994 14.9358C4.99994 17.7563 5.25893 21.7307 5.38843 23.9102C5.51792 25.5769 6.81289 26.9871 8.49634 27.1153C10.3093 27.2435 13.0287 27.4999 14.9712 27.4999C16.9136 27.4999 19.633 27.2435 21.446 27.1153C23.1294 26.9871 24.4244 25.5769 24.5539 23.9102C24.6834 21.8589 24.9424 17.8846 24.9424 14.9358C25.0719 13.9102 24.9424 12.6281 24.9424 11.0897ZM18.2086 18.782C17.8201 19.1666 17.1726 19.1666 16.7841 18.782L15.2302 17.2435V21.3461C15.2302 21.8589 14.8417 22.3717 14.1942 22.3717C13.5467 22.3717 13.1582 21.9871 13.1582 21.3461V17.2435L11.7338 18.782C11.3453 19.1666 10.6978 19.1666 10.3093 18.782C9.9208 18.3974 9.9208 17.7563 10.3093 17.3717L13.5467 14.1666C13.6762 14.0384 13.8057 14.0384 13.8057 13.9102C14.0647 13.782 14.3237 13.782 14.5827 13.9102C14.7122 13.9102 14.8417 14.0384 14.8417 14.1666L18.0791 17.3717C18.5971 17.8846 18.5971 18.3974 18.2086 18.782ZM18.8561 10.064C17.9496 10.064 17.3021 9.29481 17.3021 8.52558V4.42302C20.2805 4.67943 22.7409 6.98712 22.9999 10.064H18.8561Z" fill="#030D45"/>
</g>
</svg>
