<svg width="15" height="15" viewBox="0 0 15 15" fill="none" xmlns="http://www.w3.org/2000/svg">
<path d="M12.4712 5.54487C12.4712 5.35256 12.4712 5.22436 12.4712 5.09615C12.3417 3.04487 10.723 1.37821 8.65108 1.25C8.26259 1.25 7.8741 1.25 7.55036 1.25C6.57914 1.25 5.21942 1.37821 4.31295 1.44231C3.40647 1.50641 2.75899 2.14744 2.69424 2.98077C2.6295 4.00641 2.5 5.99359 2.5 7.46795C2.5 8.87821 2.6295 10.8654 2.69424 11.9551C2.75899 12.7885 3.40647 13.4936 4.2482 13.5577C5.15468 13.6218 6.51439 13.75 7.48561 13.75C8.45683 13.75 9.81655 13.6218 10.723 13.5577C11.5647 13.4936 12.2122 12.7885 12.277 11.9551C12.3417 10.9295 12.4712 8.94231 12.4712 7.46795C12.536 6.95513 12.4712 6.3141 12.4712 5.54487ZM8.13309 9.90385H7.35611V10.6731C7.35611 10.9295 7.16187 11.1859 6.83813 11.1859C6.51439 11.1859 6.32014 10.9936 6.32014 10.6731V9.90385H5.54317C5.28417 9.90385 5.02518 9.71154 5.02518 9.39103C5.02518 9.07051 5.21942 8.87821 5.54317 8.87821H6.32014V8.10897C6.32014 7.85256 6.51439 7.59615 6.83813 7.59615C7.16187 7.59615 7.35611 7.78846 7.35611 8.10897V8.87821H8.13309C8.39209 8.87821 8.65108 9.07051 8.65108 9.39103C8.65108 9.71154 8.39209 9.90385 8.13309 9.90385ZM9.42806 5.03205C8.97482 5.03205 8.65108 4.64744 8.65108 4.26282V2.21154C10.1403 2.33974 11.3705 3.49359 11.5 5.03205H9.42806Z" fill="#030D45"/>
</svg>
