<svg width="24" height="24" viewBox="0 0 24 24" fill="none" xmlns="http://www.w3.org/2000/svg">
<path d="M8.25 17C8.25 17.6904 7.69036 18.25 7 18.25V18.25C6.30964 18.25 5.75 17.6904 5.75 17V10.75C5.75 10.0596 6.30964 9.5 7 9.5V9.5C7.69036 9.5 8.25 10.0596 8.25 10.75V17ZM13.25 17C13.25 17.6904 12.6904 18.25 12 18.25V18.25C11.3096 18.25 10.75 17.6904 10.75 17V7C10.75 6.30964 11.3096 5.75 12 5.75V5.75C12.6904 5.75 13.25 6.30964 13.25 7V17ZM18.25 17C18.25 17.6904 17.6904 18.25 17 18.25V18.25C16.3096 18.25 15.75 17.6904 15.75 17V14.5C15.75 13.8096 16.3096 13.25 17 13.25V13.25C17.6904 13.25 18.25 13.8096 18.25 14.5V17ZM20.75 20.75H3.25V3.25H20.75V20.875M20.75 0.75H3.25C1.875 0.75 0.75 1.875 0.75 3.25V20.75C0.75 22.125 1.875 23.25 3.25 23.25H20.75C22.125 23.25 23.25 22.125 23.25 20.75V3.25C23.25 1.875 22.125 0.75 20.75 0.75Z" fill="white"/>
</svg>
